<?xml version="1.0" encoding="UTF-8"?>
<!DOCTYPE svg PUBLIC "-//W3C//DTD SVG 1.1//EN" "http://www.w3.org/Graphics/SVG/1.1/DTD/svg11.dtd">
<svg xmlns="http://www.w3.org/2000/svg" version="1.1" width="474px" height="103px" style="shape-rendering:geometricPrecision; text-rendering:geometricPrecision; image-rendering:optimizeQuality; fill-rule:evenodd; clip-rule:evenodd" xmlns:xlink="http://www.w3.org/1999/xlink">
<g><path style="opacity:1" fill="#2e2e2e" d="M -0.5,-0.5 C 157.5,-0.5 315.5,-0.5 473.5,-0.5C 473.5,33.8333 473.5,68.1667 473.5,102.5C 315.5,102.5 157.5,102.5 -0.5,102.5C -0.5,68.1667 -0.5,33.8333 -0.5,-0.5 Z"/></g>
<g><path style="opacity:1" fill="#ef4948" d="M 57.5,19.5 C 57.1667,19.5 56.8333,19.5 56.5,19.5C 55.3444,15.9976 53.3444,12.9976 50.5,10.5C 48.048,12.9349 46.048,15.6016 44.5,18.5C 43.8333,18.8333 43.1667,19.1667 42.5,19.5C 36.505,13.6481 37.505,9.14808 45.5,6C 51.8017,4.78255 57.3017,6.28255 62,10.5C 62.9868,14.6946 61.4868,17.6946 57.5,19.5 Z"/></g>
<g><path style="opacity:1" fill="#c4d2fa" d="M 56.5,19.5 C 56.6363,28.1408 52.803,30.4742 45,26.5C 44.5026,23.854 44.3359,21.1873 44.5,18.5C 46.048,15.6016 48.048,12.9349 50.5,10.5C 53.3444,12.9976 55.3444,15.9976 56.5,19.5 Z"/></g>
<g><path style="opacity:1" fill="#351266" d="M 44.5,18.5 C 44.3359,21.1873 44.5026,23.854 45,26.5C 52.803,30.4742 56.6363,28.1408 56.5,19.5C 56.8333,19.5 57.1667,19.5 57.5,19.5C 59.0507,21.9128 59.7174,24.5794 59.5,27.5C 57.8333,28.5 56.5,29.8333 55.5,31.5C 53.1944,31.9926 50.861,32.3259 48.5,32.5C 45.6349,31.5684 43.3016,29.9017 41.5,27.5C 41.4013,24.7628 41.7347,22.0961 42.5,19.5C 43.1667,19.1667 43.8333,18.8333 44.5,18.5 Z"/></g>
<g><path style="opacity:1" fill="#bbcefa" d="M 41.5,27.5 C 39.022,29.8025 36.3553,31.9692 33.5,34C 38.4962,33.8355 43.4962,33.3355 48.5,32.5C 50.861,32.3259 53.1944,31.9926 55.5,31.5C 57.8568,31.6633 60.1902,31.4966 62.5,31C 61.2899,29.9609 60.2899,28.7942 59.5,27.5C 70.9704,27.8179 80.137,32.4845 87,41.5C 88.036,47.9255 85.536,52.4255 79.5,55C 77.26,55.977 74.9267,56.477 72.5,56.5C 65.4498,55.8919 59.2831,53.2252 54,48.5C 53.3333,47.8333 53.3333,47.1667 54,46.5C 56.7291,43.6007 59.5624,40.934 62.5,38.5C 63.7804,37.0687 65.4471,36.4021 67.5,36.5C 67.5,35.1667 67.5,33.8333 67.5,32.5C 62.7863,32.1734 58.1196,32.5067 53.5,33.5C 55.9864,35.578 56.9864,38.2447 56.5,41.5C 52.2366,44.9809 47.9032,48.4809 43.5,52C 38.5031,54.6993 33.1698,56.1993 27.5,56.5C 27.5,57.5 27.5,58.5 27.5,59.5C 26.596,58.791 26.2627,57.791 26.5,56.5C 16.3199,55.1635 12.1532,49.4968 14,39.5C 21.4179,31.5421 30.5846,27.5421 41.5,27.5 Z"/></g>
<g><path style="opacity:1" fill="#648eea" d="M 59.5,27.5 C 60.2899,28.7942 61.2899,29.9609 62.5,31C 60.1902,31.4966 57.8568,31.6633 55.5,31.5C 56.5,29.8333 57.8333,28.5 59.5,27.5 Z"/></g>
<g><path style="opacity:1" fill="#6a94ef" d="M 41.5,27.5 C 43.3016,29.9017 45.6349,31.5684 48.5,32.5C 43.4962,33.3355 38.4962,33.8355 33.5,34C 36.3553,31.9692 39.022,29.8025 41.5,27.5 Z"/></g>
<g><path style="opacity:1" fill="#9d9d9d" d="M 278.5,38.5 C 278.167,38.5 277.833,38.5 277.5,38.5C 277.5,36.5 277.5,34.5 277.5,32.5C 269.167,32.5 260.833,32.5 252.5,32.5C 252.5,45.5 252.5,58.5 252.5,71.5C 251.504,58.3438 251.171,45.0105 251.5,31.5C 260.5,31.5 269.5,31.5 278.5,31.5C 278.5,33.8333 278.5,36.1667 278.5,38.5 Z"/></g>
<g><path style="opacity:1" fill="#8b751a" d="M 368.5,38.5 C 368.167,38.5 367.833,38.5 367.5,38.5C 367.5,36.5 367.5,34.5 367.5,32.5C 359.167,32.5 350.833,32.5 342.5,32.5C 342.5,45.5 342.5,58.5 342.5,71.5C 341.504,58.3438 341.171,45.0105 341.5,31.5C 350.5,31.5 359.5,31.5 368.5,31.5C 368.5,33.8333 368.5,36.1667 368.5,38.5 Z"/></g>
<g><path style="opacity:1" fill="#8b751a" d="M 463.5,38.5 C 463.167,38.5 462.833,38.5 462.5,38.5C 462.5,36.5 462.5,34.5 462.5,32.5C 454.167,32.5 445.833,32.5 437.5,32.5C 437.5,45.5 437.5,58.5 437.5,71.5C 436.504,58.3438 436.171,45.0105 436.5,31.5C 445.5,31.5 454.5,31.5 463.5,31.5C 463.5,33.8333 463.5,36.1667 463.5,38.5 Z"/></g>
<g><path style="opacity:1" fill="#fbfbfb" d="M 103.5,32.5 C 106.167,32.5 108.833,32.5 111.5,32.5C 111.5,45.5 111.5,58.5 111.5,71.5C 108.833,71.5 106.167,71.5 103.5,71.5C 103.5,58.5 103.5,45.5 103.5,32.5 Z"/></g>
<g><path style="opacity:1" fill="#fafafa" d="M 152.5,32.5 C 155.5,32.5 158.5,32.5 161.5,32.5C 161.5,45.5 161.5,58.5 161.5,71.5C 159.5,71.5 157.5,71.5 155.5,71.5C 155.831,62.8078 155.498,54.1411 154.5,45.5C 153.893,45.6236 153.56,45.9569 153.5,46.5C 150.433,54.6999 147.767,63.0332 145.5,71.5C 143.076,71.8076 140.743,71.4742 138.5,70.5C 135.628,63.2147 132.961,55.8814 130.5,48.5C 130.539,47.2438 130.039,46.2438 129,45.5C 128.5,54.1603 128.334,62.8269 128.5,71.5C 126.167,71.5 123.833,71.5 121.5,71.5C 121.5,58.5 121.5,45.5 121.5,32.5C 125.226,32.1774 128.893,32.5108 132.5,33.5C 135.568,42.5377 138.735,51.5377 142,60.5C 145.234,50.9516 148.734,41.6182 152.5,32.5 Z"/></g>
<g><path style="opacity:1" fill="#b9b9b9" d="M 152.5,32.5 C 155.625,31.5206 158.958,31.1872 162.5,31.5C 162.829,45.0105 162.496,58.3438 161.5,71.5C 161.5,58.5 161.5,45.5 161.5,32.5C 158.5,32.5 155.5,32.5 152.5,32.5 Z"/></g>
<g><path style="opacity:1" fill="#f6f6f6" d="M 180.5,32.5 C 184.437,32.2065 188.27,32.5399 192,33.5C 196.679,46.0353 200.845,58.702 204.5,71.5C 201.833,71.5 199.167,71.5 196.5,71.5C 195.833,68.5 195.167,65.5 194.5,62.5C 189.125,62.1718 183.792,62.5052 178.5,63.5C 177.215,66.0205 176.548,68.6872 176.5,71.5C 173.482,71.6646 170.482,71.498 167.5,71C 172.264,58.3074 176.597,45.4741 180.5,32.5 Z"/></g>
<g><path style="opacity:1" fill="#f5f5f5" d="M 234.5,60.5 C 235.451,59.0813 235.784,57.4147 235.5,55.5C 232.5,55.5 229.5,55.5 226.5,55.5C 226.5,53.8333 226.5,52.1667 226.5,50.5C 231.833,50.5 237.167,50.5 242.5,50.5C 242.5,57.5 242.5,64.5 242.5,71.5C 240.167,71.5 237.833,71.5 235.5,71.5C 235.995,65.8143 234.995,65.3143 232.5,70C 220.694,74.6819 212.861,70.8486 209,58.5C 206.231,39.2752 214.397,30.4419 233.5,32C 237.73,33.1033 240.73,35.6033 242.5,39.5C 240.772,41.2255 238.772,42.5589 236.5,43.5C 232.922,38.9532 228.256,37.4532 222.5,39C 220.622,40.5429 219.122,42.3762 218,44.5C 217.333,49.1667 217.333,53.8333 218,58.5C 220.779,65.3962 225.613,67.2295 232.5,64C 233.823,63.1841 234.489,62.0174 234.5,60.5 Z"/></g>
<g><path style="opacity:1" fill="#f9f9f9" d="M 277.5,38.5 C 271.5,38.5 265.5,38.5 259.5,38.5C 259.19,41.7131 259.523,44.7131 260.5,47.5C 265.5,47.5 270.5,47.5 275.5,47.5C 275.5,49.8333 275.5,52.1667 275.5,54.5C 270.167,54.5 264.833,54.5 259.5,54.5C 259.5,57.8333 259.5,61.1667 259.5,64.5C 265.833,64.5 272.167,64.5 278.5,64.5C 278.5,66.8333 278.5,69.1667 278.5,71.5C 269.833,71.5 261.167,71.5 252.5,71.5C 252.5,58.5 252.5,45.5 252.5,32.5C 260.833,32.5 269.167,32.5 277.5,32.5C 277.5,34.5 277.5,36.5 277.5,38.5 Z"/></g>
<g><path style="opacity:1" fill="#deb508" d="M 324.5,60.5 C 325.451,59.0813 325.784,57.4147 325.5,55.5C 322.5,55.5 319.5,55.5 316.5,55.5C 316.5,53.8333 316.5,52.1667 316.5,50.5C 321.833,50.5 327.167,50.5 332.5,50.5C 332.5,57.5 332.5,64.5 332.5,71.5C 330.167,71.5 327.833,71.5 325.5,71.5C 325.995,65.8143 324.995,65.3143 322.5,70C 313.377,74.2923 306.21,72.1256 301,63.5C 296.566,52.9444 298.066,43.4444 305.5,35C 313.463,30.3391 321.463,30.3391 329.5,35C 333.588,39.1844 332.588,42.0177 326.5,43.5C 322.922,38.9532 318.256,37.4532 312.5,39C 308.208,42.0875 306.542,46.2541 307.5,51.5C 306.712,62.8904 311.712,67.057 322.5,64C 323.823,63.1841 324.489,62.0174 324.5,60.5 Z"/></g>
<g><path style="opacity:1" fill="#e1b707" d="M 367.5,38.5 C 361.5,38.5 355.5,38.5 349.5,38.5C 349.19,41.7131 349.523,44.7131 350.5,47.5C 355.5,47.5 360.5,47.5 365.5,47.5C 365.5,49.8333 365.5,52.1667 365.5,54.5C 360.167,54.5 354.833,54.5 349.5,54.5C 349.5,57.8333 349.5,61.1667 349.5,64.5C 355.833,64.5 362.167,64.5 368.5,64.5C 368.5,66.8333 368.5,69.1667 368.5,71.5C 359.833,71.5 351.167,71.5 342.5,71.5C 342.5,58.5 342.5,45.5 342.5,32.5C 350.833,32.5 359.167,32.5 367.5,32.5C 367.5,34.5 367.5,36.5 367.5,38.5 Z"/></g>
<g><path style="opacity:1" fill="#e4b906" d="M 399.5,56.5 C 399.56,57.0431 399.893,57.3764 400.5,57.5C 401.498,49.1932 401.831,40.8599 401.5,32.5C 403.833,32.5 406.167,32.5 408.5,32.5C 408.5,45.5 408.5,58.5 408.5,71.5C 404.993,72.0065 401.826,71.3398 399,69.5C 394.338,61.3513 389.505,53.3513 384.5,45.5C 384.44,44.9569 384.107,44.6236 383.5,44.5C 382.502,53.4754 382.168,62.4754 382.5,71.5C 380.167,71.5 377.833,71.5 375.5,71.5C 375.5,58.5 375.5,45.5 375.5,32.5C 378.898,32.1796 382.232,32.513 385.5,33.5C 390.429,41.0279 395.096,48.6946 399.5,56.5 Z"/></g>
<g><path style="opacity:1" fill="#84701a" d="M 408.5,32.5 C 406.167,32.5 403.833,32.5 401.5,32.5C 401.831,40.8599 401.498,49.1932 400.5,57.5C 399.893,57.3764 399.56,57.0431 399.5,56.5C 400.493,48.3501 400.826,40.0168 400.5,31.5C 403.385,31.1936 406.052,31.5269 408.5,32.5 Z"/></g>
<g><path style="opacity:1" fill="#a28715" d="M 426.5,32.5 C 424.167,32.5 421.833,32.5 419.5,32.5C 419.5,45.5 419.5,58.5 419.5,71.5C 418.504,58.3438 418.171,45.0105 418.5,31.5C 421.385,31.1936 424.052,31.5269 426.5,32.5 Z"/></g>
<g><path style="opacity:1" fill="#e6bc04" d="M 426.5,32.5 C 426.5,45.5 426.5,58.5 426.5,71.5C 424.167,71.5 421.833,71.5 419.5,71.5C 419.5,58.5 419.5,45.5 419.5,32.5C 421.833,32.5 424.167,32.5 426.5,32.5 Z"/></g>
<g><path style="opacity:1" fill="#e1b707" d="M 462.5,38.5 C 456.5,38.5 450.5,38.5 444.5,38.5C 444.19,41.7131 444.523,44.7131 445.5,47.5C 450.5,47.5 455.5,47.5 460.5,47.5C 460.5,49.8333 460.5,52.1667 460.5,54.5C 455.167,54.5 449.833,54.5 444.5,54.5C 444.5,57.8333 444.5,61.1667 444.5,64.5C 450.833,64.5 457.167,64.5 463.5,64.5C 463.5,66.8333 463.5,69.1667 463.5,71.5C 454.833,71.5 446.167,71.5 437.5,71.5C 437.5,58.5 437.5,45.5 437.5,32.5C 445.833,32.5 454.167,32.5 462.5,32.5C 462.5,34.5 462.5,36.5 462.5,38.5 Z"/></g>
<g><path style="opacity:1" fill="#fae0be" d="M 62.5,38.5 C 60.2163,38.9752 58.2163,39.9752 56.5,41.5C 56.9864,38.2447 55.9864,35.578 53.5,33.5C 58.1196,32.5067 62.7863,32.1734 67.5,32.5C 67.5,33.8333 67.5,35.1667 67.5,36.5C 65.4471,36.4021 63.7804,37.0687 62.5,38.5 Z"/></g>
<g><path style="opacity:1" fill="#565656" d="M 277.5,38.5 C 277.833,38.5 278.167,38.5 278.5,38.5C 272.69,39.4896 266.69,39.8229 260.5,39.5C 260.5,42.1667 260.5,44.8333 260.5,47.5C 259.523,44.7131 259.19,41.7131 259.5,38.5C 265.5,38.5 271.5,38.5 277.5,38.5 Z"/></g>
<g><path style="opacity:1" fill="#4c4427" d="M 367.5,38.5 C 367.833,38.5 368.167,38.5 368.5,38.5C 362.69,39.4896 356.69,39.8229 350.5,39.5C 350.5,42.1667 350.5,44.8333 350.5,47.5C 349.523,44.7131 349.19,41.7131 349.5,38.5C 355.5,38.5 361.5,38.5 367.5,38.5 Z"/></g>
<g><path style="opacity:1" fill="#4c4427" d="M 462.5,38.5 C 462.833,38.5 463.167,38.5 463.5,38.5C 457.69,39.4896 451.69,39.8229 445.5,39.5C 445.5,42.1667 445.5,44.8333 445.5,47.5C 444.523,44.7131 444.19,41.7131 444.5,38.5C 450.5,38.5 456.5,38.5 462.5,38.5 Z"/></g>
<g><path style="opacity:1" fill="#353535" d="M 185.5,40.5 C 188.051,44.785 190.051,49.4516 191.5,54.5C 188.232,55.487 184.898,55.8204 181.5,55.5C 182.833,50.5 184.167,45.5 185.5,40.5 Z"/></g>
<g><path style="opacity:1" fill="#aa8d13" d="M 384.5,45.5 C 383.833,54.1667 383.167,62.8333 382.5,71.5C 382.168,62.4754 382.502,53.4754 383.5,44.5C 384.107,44.6236 384.44,44.9569 384.5,45.5 Z"/></g>
<g><path style="opacity:1" fill="#717171" d="M 130.5,48.5 C 129.833,56.1667 129.167,63.8333 128.5,71.5C 128.334,62.8269 128.5,54.1603 129,45.5C 130.039,46.2438 130.539,47.2438 130.5,48.5 Z"/></g>
<g><path style="opacity:1" fill="#c7c7c7" d="M 153.5,46.5 C 153.56,45.9569 153.893,45.6236 154.5,45.5C 155.498,54.1411 155.831,62.8078 155.5,71.5C 154.833,63.1667 154.167,54.8333 153.5,46.5 Z"/></g>
<g><path style="opacity:1" fill="#6b94eb" d="M 62.5,38.5 C 59.5624,40.934 56.7291,43.6007 54,46.5C 53.3333,47.1667 53.3333,47.8333 54,48.5C 59.2831,53.2252 65.4498,55.8919 72.5,56.5C 72.0679,57.7095 71.4013,58.7095 70.5,59.5C 62.7861,58.3097 56.1194,54.9764 50.5,49.5C 44.1341,55.8502 36.4675,59.1835 27.5,59.5C 27.5,58.5 27.5,57.5 27.5,56.5C 33.1698,56.1993 38.5031,54.6993 43.5,52C 47.9032,48.4809 52.2366,44.9809 56.5,41.5C 58.2163,39.9752 60.2163,38.9752 62.5,38.5 Z"/></g>
<g><path style="opacity:1" fill="#bed0fd" d="M 70.5,59.5 C 68.6967,63.7817 66.8634,68.115 65,72.5C 64.5034,74.8098 64.3367,77.1432 64.5,79.5C 58.6713,85.0059 51.6713,88.0059 43.5,88.5C 34.2807,81.0681 28.9473,71.4014 27.5,59.5C 36.4675,59.1835 44.1341,55.8502 50.5,49.5C 56.1194,54.9764 62.7861,58.3097 70.5,59.5 Z"/></g>
<g><path style="opacity:1" fill="#aaaaaa" d="M 242.5,71.5 C 242.5,64.5 242.5,57.5 242.5,50.5C 237.167,50.5 231.833,50.5 226.5,50.5C 226.5,52.1667 226.5,53.8333 226.5,55.5C 229.5,55.5 232.5,55.5 235.5,55.5C 235.784,57.4147 235.451,59.0813 234.5,60.5C 234.5,59.1667 234.5,57.8333 234.5,56.5C 231.5,56.5 228.5,56.5 225.5,56.5C 225.5,54.1667 225.5,51.8333 225.5,49.5C 231.5,49.5 237.5,49.5 243.5,49.5C 243.825,57.0191 243.492,64.3524 242.5,71.5 Z"/></g>
<g><path style="opacity:1" fill="#987f18" d="M 332.5,71.5 C 332.5,64.5 332.5,57.5 332.5,50.5C 327.167,50.5 321.833,50.5 316.5,50.5C 316.5,52.1667 316.5,53.8333 316.5,55.5C 319.5,55.5 322.5,55.5 325.5,55.5C 325.784,57.4147 325.451,59.0813 324.5,60.5C 324.5,59.1667 324.5,57.8333 324.5,56.5C 321.5,56.5 318.5,56.5 315.5,56.5C 315.5,54.1667 315.5,51.8333 315.5,49.5C 321.5,49.5 327.5,49.5 333.5,49.5C 333.825,57.0191 333.492,64.3524 332.5,71.5 Z"/></g>
<g><path style="opacity:1" fill="#f5464c" d="M 64.5,79.5 C 63.7768,83.3896 65.1102,86.0563 68.5,87.5C 65.779,91.8658 61.779,94.1991 56.5,94.5C 51.4939,93.8285 47.1606,91.8285 43.5,88.5C 51.6713,88.0059 58.6713,85.0059 64.5,79.5 Z"/></g>
<g><path style="opacity:1" fill="#bdc4ee" d="M 68.5,87.5 C 73.207,91.1 78.207,91.4333 83.5,88.5C 83.8333,88.6667 84.1667,88.8333 84.5,89C 75.9412,95.1947 66.6079,97.0281 56.5,94.5C 61.779,94.1991 65.779,91.8658 68.5,87.5 Z"/></g>
</svg>
